<?xml version="1.0" encoding="UTF-8" standalone="no"?>
<!-- Created with Inkscape (http://www.inkscape.org/) -->

<svg
   version="1.1"
   id="svg2"
   width="400"
   height="400"
   viewBox="0 0 400 400"
   sodipodi:docname="3740.ai"
   xmlns:inkscape="http://www.inkscape.org/namespaces/inkscape"
   xmlns:sodipodi="http://sodipodi.sourceforge.net/DTD/sodipodi-0.dtd"
   xmlns="http://www.w3.org/2000/svg"
   xmlns:svg="http://www.w3.org/2000/svg">
  <defs
     id="defs6">
    <clipPath
       clipPathUnits="userSpaceOnUse"
       id="clipPath16">
      <path
         d="M 0,300 H 300 V 0 H 0 Z"
         id="path14" />
    </clipPath>
  </defs>
  <sodipodi:namedview
     id="namedview4"
     pagecolor="#ffffff"
     bordercolor="#000000"
     borderopacity="0.25"
     inkscape:showpageshadow="2"
     inkscape:pageopacity="0.0"
     inkscape:pagecheckerboard="0"
     inkscape:deskcolor="#d1d1d1" />
  <g
     id="g8"
     inkscape:groupmode="layer"
     inkscape:label="3740"
     transform="matrix(1.3333333,0,0,-1.3333333,0,400)">
    <g
       id="g10">
      <g
         id="g12"
         clip-path="url(#clipPath16)">
        <g
           id="g18"
           transform="translate(128.0376,109.5762)">
          <path
             d="m 0,0 c -0.455,-0.253 -0.84,-0.621 -1.091,-1.089 -3.546,-6.598 -5.043,-14.157 -5.615,-17.999 h -9.579 c -0.571,3.842 -2.069,11.401 -5.614,17.999 -0.378,0.703 -1.042,1.207 -1.821,1.382 -1.509,0.338 -2.989,0.732 -4.402,1.174 -0.762,0.238 -1.589,0.134 -2.267,-0.287 -6.366,-3.943 -11.44,-9.736 -13.855,-12.776 l -8.296,4.79 c 1.428,3.616 3.913,10.918 4.138,18.411 0.025,0.796 -0.298,1.564 -0.883,2.104 -1.11,1.024 -2.188,2.103 -3.205,3.205 -0.54,0.586 -1.307,0.919 -2.104,0.885 -7.494,-0.226 -14.797,-2.711 -18.413,-4.138 l -4.789,8.296 c 3.04,2.415 8.834,7.487 12.775,13.855 0.42,0.677 0.525,1.504 0.288,2.266 -0.443,1.42 -0.838,2.901 -1.174,4.401 -0.174,0.779 -0.678,1.444 -1.382,1.822 -6.598,3.545 -14.157,5.043 -17.999,5.614 v 9.58 c 3.842,0.571 11.401,2.068 17.999,5.614 0.704,0.378 1.208,1.042 1.382,1.822 0.336,1.5 0.731,2.981 1.174,4.401 0.237,0.762 0.132,1.588 -0.288,2.267 -3.941,6.366 -9.735,11.439 -12.775,13.854 l 4.789,8.296 c 3.616,-1.427 10.919,-3.912 18.412,-4.138 0.813,-0.027 1.565,0.299 2.105,0.884 1.017,1.103 2.095,2.182 3.205,3.205 0.585,0.541 0.908,1.308 0.883,2.104 -0.225,7.493 -2.71,14.797 -4.138,18.412 l 8.296,4.789 c 2.415,-3.04 7.489,-8.833 13.855,-12.775 0.678,-0.42 1.504,-0.525 2.266,-0.288 1.421,0.443 2.902,0.838 4.402,1.174 0.779,0.175 1.444,0.679 1.822,1.383 3.545,6.598 5.043,14.156 5.614,17.998 h 9.579 c 0.572,-3.842 2.069,-11.4 5.615,-17.998 0.378,-0.704 1.042,-1.208 1.821,-1.383 1.502,-0.336 2.983,-0.731 4.402,-1.173 0.762,-0.239 1.588,-0.134 2.266,0.287 6.367,3.942 11.44,9.735 13.855,12.775 l 8.295,-4.789 C 28.122,112.6 25.636,105.297 25.411,97.804 25.387,97.008 25.709,96.24 26.294,95.7 c 1.107,-1.021 2.185,-2.099 3.206,-3.205 0.541,-0.585 1.315,-0.91 2.104,-0.884 7.493,0.226 14.796,2.711 18.411,4.138 l 4.79,-8.296 c -2.469,-1.961 -6.752,-5.674 -10.386,-10.409 2.19,0.316 4.415,0.004 6.42,-0.877 4.384,4.937 9.076,8.261 9.138,8.305 1.168,0.818 1.519,2.394 0.806,3.628 l -7.218,12.502 c -0.714,1.235 -2.252,1.72 -3.547,1.116 -0.089,-0.042 -8.563,-3.963 -17.365,-4.55 -0.55,0.572 -1.113,1.135 -1.686,1.685 0.588,8.772 4.509,17.278 4.551,17.367 0.602,1.292 0.117,2.832 -1.117,3.545 L 21.9,126.982 c -1.234,0.714 -2.811,0.364 -3.629,-0.806 -0.056,-0.08 -5.425,-7.7 -12.745,-12.61 -0.766,0.22 -1.544,0.428 -2.33,0.621 -3.87,7.886 -4.726,17.201 -4.734,17.298 -0.125,1.421 -1.314,2.512 -2.74,2.512 h -14.435 c -1.427,0 -2.617,-1.092 -2.74,-2.514 -0.008,-0.097 -0.848,-9.383 -4.734,-17.296 -0.785,-0.193 -1.563,-0.401 -2.33,-0.621 -7.294,4.895 -12.69,12.531 -12.746,12.611 -0.818,1.168 -2.394,1.517 -3.628,0.806 l -12.501,-7.218 c -1.236,-0.713 -1.721,-2.254 -1.116,-3.546 0.041,-0.089 3.962,-8.563 4.55,-17.365 -0.573,-0.552 -1.136,-1.115 -1.686,-1.686 -8.772,0.588 -17.278,4.509 -17.367,4.55 -1.292,0.603 -2.832,0.119 -3.545,-1.116 l -7.217,-12.501 c -0.714,-1.236 -0.363,-2.812 0.807,-3.63 0.079,-0.055 7.699,-5.425 12.61,-12.745 -0.221,-0.766 -0.428,-1.544 -0.621,-2.33 -7.887,-3.87 -17.202,-4.726 -17.299,-4.734 -1.42,-0.124 -2.512,-1.314 -2.512,-2.74 V 47.487 c 0,-1.427 1.092,-2.617 2.514,-2.739 0.097,-0.009 9.384,-0.85 17.297,-4.735 0.193,-0.785 0.4,-1.563 0.621,-2.329 -4.896,-7.293 -12.532,-12.69 -12.612,-12.746 -1.167,-0.818 -1.518,-2.394 -0.805,-3.628 l 7.217,-12.501 c 0.713,-1.235 2.254,-1.721 3.545,-1.118 0.089,0.042 8.595,3.963 17.367,4.551 0.55,-0.571 1.113,-1.135 1.686,-1.685 -0.588,-8.772 -4.51,-17.279 -4.551,-17.368 -0.602,-1.292 -0.117,-2.832 1.117,-3.544 l 12.501,-7.218 c 1.235,-0.713 2.812,-0.364 3.629,0.806 0.056,0.08 5.425,7.7 12.745,12.611 0.765,-0.22 1.543,-0.428 2.33,-0.621 3.87,-7.887 4.726,-17.202 4.734,-17.299 0.125,-1.42 1.314,-2.512 2.74,-2.512 h 14.435 c 1.427,0 2.617,1.092 2.74,2.514 0.008,0.096 0.849,9.384 4.734,17.297 0.092,0.022 0.179,0.048 0.271,0.072 C 1.941,-3.464 0.746,-1.847 0,0"
             style="fill:#454140;fill-opacity:1;fill-rule:nonzero;stroke:none"
             id="path20" />
        </g>
        <g
           id="g22"
           transform="translate(260,114.0049)">
          <path
             d="m 0,0 h 0.01 z m -63.831,-52.078 h 6.59 c 0.51,3.202 1.729,8.911 4.427,13.932 0.378,0.704 1.043,1.208 1.823,1.382 1.165,0.261 2.321,0.569 3.434,0.916 0.762,0.236 1.588,0.132 2.266,-0.288 4.845,-2.999 8.752,-7.331 10.794,-9.848 l 5.708,3.296 c -1.161,3.03 -2.961,8.59 -3.134,14.292 -0.023,0.797 0.299,1.565 0.886,2.106 0.862,0.795 1.704,1.637 2.499,2.499 0.54,0.587 1.313,0.914 2.105,0.886 5.703,-0.173 11.263,-1.973 14.293,-3.134 l 3.296,5.708 c -2.517,2.042 -6.849,5.949 -9.848,10.794 -0.42,0.678 -0.525,1.504 -0.288,2.266 0.346,1.111 0.654,2.266 0.916,3.434 0.173,0.779 0.678,1.445 1.381,1.823 5.022,2.698 10.731,3.917 13.933,4.427 v 6.59 c -3.202,0.51 -8.911,1.729 -13.933,4.427 -0.703,0.378 -1.208,1.044 -1.381,1.823 -0.262,1.168 -0.57,2.323 -0.916,3.434 -0.237,0.762 -0.132,1.588 0.288,2.266 2.999,4.845 7.331,8.752 9.848,10.794 l -3.296,5.708 c -3.03,-1.161 -8.59,-2.962 -14.293,-3.134 -0.821,-0.033 -1.565,0.299 -2.105,0.886 -0.794,0.862 -1.636,1.703 -2.5,2.501 -0.586,0.54 -0.908,1.308 -0.885,2.104 0.173,5.702 1.973,11.262 3.134,14.292 l -5.708,3.296 c -2.041,-2.518 -5.949,-6.849 -10.793,-9.849 -0.68,-0.42 -1.507,-0.526 -2.268,-0.287 -1.111,0.347 -2.266,0.655 -3.433,0.915 -0.78,0.175 -1.446,0.679 -1.823,1.383 -2.698,5.021 -3.917,10.73 -4.427,13.932 h -6.59 c -0.51,-3.202 -1.73,-8.911 -4.427,-13.932 -0.378,-0.704 -1.044,-1.208 -1.823,-1.382 -1.169,-0.262 -2.324,-0.57 -3.434,-0.916 -0.76,-0.239 -1.587,-0.134 -2.267,0.287 -4.844,2.999 -8.751,7.331 -10.793,9.849 l -5.707,-3.296 c 1.16,-3.03 2.96,-8.59 3.133,-14.292 0.023,-0.796 -0.299,-1.564 -0.885,-2.104 -0.864,-0.798 -1.706,-1.639 -2.5,-2.501 -0.54,-0.587 -1.282,-0.92 -2.106,-0.886 -5.702,0.172 -11.262,1.973 -14.293,3.134 l -3.295,-5.708 c 2.518,-2.042 6.849,-5.949 9.849,-10.793 0.42,-0.679 0.525,-1.507 0.287,-2.268 -0.346,-1.108 -0.654,-2.262 -0.916,-3.433 -0.174,-0.779 -0.679,-1.445 -1.382,-1.823 -5.021,-2.698 -10.73,-3.917 -13.932,-4.427 v -6.59 c 3.202,-0.51 8.911,-1.729 13.932,-4.427 0.703,-0.378 1.208,-1.044 1.382,-1.823 0.262,-1.171 0.57,-2.325 0.916,-3.433 0.238,-0.761 0.133,-1.589 -0.287,-2.268 -3,-4.844 -7.331,-8.752 -9.849,-10.793 l 3.295,-5.708 c 3.031,1.161 8.591,2.961 14.293,3.134 0.794,0.029 1.566,-0.299 2.106,-0.886 0.795,-0.862 1.637,-1.704 2.499,-2.499 0.587,-0.541 0.909,-1.309 0.886,-2.106 -0.173,-5.702 -1.973,-11.262 -3.133,-14.292 l 5.707,-3.296 c 2.042,2.517 5.949,6.849 10.794,9.848 0.678,0.42 1.506,0.524 2.265,0.288 1.112,-0.346 2.267,-0.654 3.435,-0.916 0.779,-0.174 1.445,-0.678 1.823,-1.382 2.697,-5.021 3.917,-10.73 4.427,-13.932 m 9.003,-5.5 h -11.416 c -1.427,0 -2.617,1.092 -2.74,2.514 -0.006,0.072 -0.66,7.154 -3.572,13.236 -0.45,0.113 -0.898,0.232 -1.341,0.357 -5.561,-3.811 -9.666,-9.616 -9.71,-9.677 -0.819,-1.168 -2.396,-1.519 -3.628,-0.806 l -9.887,5.709 c -1.236,0.714 -1.721,2.254 -1.116,3.547 0.031,0.066 3.009,6.534 3.526,13.262 -0.327,0.319 -0.649,0.641 -0.968,0.968 -6.727,-0.516 -13.197,-3.496 -13.265,-3.528 -1.292,-0.6 -2.831,-0.116 -3.545,1.117 l -5.708,9.888 c -0.713,1.236 -0.363,2.812 0.807,3.63 0.06,0.042 5.865,4.146 9.676,9.708 -0.125,0.443 -0.244,0.89 -0.357,1.341 -6.082,2.913 -13.164,3.566 -13.239,3.573 -1.42,0.125 -2.511,1.314 -2.511,2.739 v 11.416 c 0,1.427 1.092,2.617 2.513,2.74 0.073,0.006 7.155,0.659 13.237,3.572 0.113,0.451 0.232,0.898 0.357,1.341 -3.811,5.562 -9.616,9.667 -9.678,9.71 -1.167,0.819 -1.517,2.394 -0.804,3.628 l 5.708,9.887 c 0.713,1.237 2.254,1.721 3.547,1.116 0.066,-0.031 6.535,-3.01 13.262,-3.526 0.319,0.326 0.641,0.649 0.968,0.967 -0.517,6.729 -3.495,13.198 -3.527,13.266 -0.602,1.292 -0.117,2.832 1.117,3.544 l 9.887,5.708 c 1.237,0.714 2.812,0.363 3.63,-0.806 0.042,-0.061 4.146,-5.865 9.708,-9.676 0.443,0.125 0.89,0.244 1.341,0.357 2.912,6.082 3.566,13.164 3.573,13.239 0.125,1.42 1.314,2.511 2.739,2.511 h 11.416 c 1.427,0 2.617,-1.091 2.74,-2.513 0.006,-0.073 0.66,-7.154 3.571,-13.236 0.452,-0.114 0.899,-0.233 1.342,-0.358 5.587,3.825 9.665,9.614 9.708,9.676 0.819,1.17 2.394,1.52 3.63,0.807 l 9.888,-5.708 c 1.236,-0.714 1.72,-2.255 1.116,-3.547 -0.031,-0.067 -3.011,-6.536 -3.527,-13.264 0.327,-0.318 0.649,-0.641 0.967,-0.967 6.757,0.515 13.195,3.494 13.263,3.526 1.296,0.607 2.832,0.12 3.547,-1.116 l 5.709,-9.887 c 0.713,-1.236 0.363,-2.812 -0.808,-3.63 -0.059,-0.042 -5.864,-4.147 -9.675,-9.708 0.125,-0.443 0.244,-0.891 0.357,-1.341 C -6.918,14.815 0.164,14.162 0.239,14.155 1.658,14.03 2.75,12.841 2.75,11.416 V 0 C 2.75,-1.427 1.659,-2.616 0.238,-2.739 0.122,-2.75 -6.936,-3.408 -13,-6.312 c -0.113,-0.45 -0.232,-0.898 -0.357,-1.341 3.811,-5.561 9.616,-9.666 9.677,-9.71 1.167,-0.819 1.518,-2.394 0.806,-3.628 l -5.709,-9.888 c -0.715,-1.235 -2.252,-1.722 -3.547,-1.116 -0.066,0.031 -6.535,3.011 -13.263,3.527 -0.318,-0.327 -0.64,-0.649 -0.967,-0.968 0.516,-6.727 3.496,-13.196 3.528,-13.264 0.602,-1.292 0.117,-2.832 -1.117,-3.545 l -9.888,-5.709 c -1.236,-0.713 -2.811,-0.362 -3.63,0.808 -0.042,0.059 -4.147,5.864 -9.708,9.675 -0.444,-0.125 -0.891,-0.244 -1.342,-0.357 -2.912,-6.082 -3.565,-13.164 -3.572,-13.239 -0.125,-1.419 -1.314,-2.511 -2.739,-2.511"
             style="fill:#454140;fill-opacity:1;fill-rule:nonzero;stroke:none"
             id="path24" />
        </g>
        <g
           id="g26"
           transform="translate(199.4639,134.6299)">
          <path
             d="m 0,0 c -8.226,0 -14.917,-6.691 -14.917,-14.917 0,-8.226 6.691,-14.917 14.917,-14.917 8.226,0 14.917,6.691 14.917,14.917 C 14.917,-6.691 8.226,0 0,0 m 0,-35.334 c -11.258,0 -20.417,9.159 -20.417,20.417 0,11.258 9.159,20.417 20.417,20.417 11.258,0 20.417,-9.159 20.417,-20.417 0,-11.258 -9.159,-20.417 -20.417,-20.417"
             style="fill:#454140;fill-opacity:1;fill-rule:nonzero;stroke:none"
             id="path28" />
        </g>
        <g
           id="g30"
           transform="translate(116.542,183.8687)">
          <path
             d="m 0,0 c -10.8,0 -19.587,-8.787 -19.587,-19.588 0,-10.8 8.787,-19.587 19.587,-19.587 10.801,0 19.588,8.787 19.588,19.587 C 19.588,-8.787 10.801,0 0,0 m 0,-44.675 c -13.833,0 -25.087,11.254 -25.087,25.087 C -25.087,-5.754 -13.833,5.5 0,5.5 13.833,5.5 25.088,-5.754 25.088,-19.588 25.088,-33.421 13.833,-44.675 0,-44.675"
             style="fill:#454140;fill-opacity:1;fill-rule:nonzero;stroke:none"
             id="path32" />
        </g>
      </g>
    </g>
  </g>
</svg>
